<svg width="8" height="12" viewBox="0 0 8 12" fill="none" xmlns="http://www.w3.org/2000/svg">
<path d="M6.85848 5.53176L1.51833 0.191706C1.39482 0.0680973 1.22994 2.1505e-07 1.05414 1.84311e-07C0.878335 1.53573e-07 0.713458 0.0680971 0.589947 0.191706L0.196681 0.584873C-0.0592191 0.841066 -0.0592192 1.25745 0.196681 1.51326L4.68094 5.99751L0.191704 10.4867C0.0681927 10.6104 -1.88398e-06 10.7751 -1.91471e-06 10.9508C-1.94546e-06 11.1267 0.0681926 11.2915 0.191704 11.4152L0.584969 11.8083C0.708578 11.9319 0.873357 12 1.04916 12C1.22496 12 1.38984 11.9319 1.51335 11.8083L6.85848 6.46336C6.98229 6.33936 7.05028 6.1738 7.04989 5.99781C7.05028 5.82112 6.98229 5.65566 6.85848 5.53176Z" fill="#165FFC"/>
</svg>
