<svg width="12" height="12" viewBox="0 0 12 12" fill="none" xmlns="http://www.w3.org/2000/svg">
<path d="M6 0C3.47993 0 1.42969 2.05024 1.42969 4.57031C1.42969 6.19716 1.92457 6.84956 4.30268 9.98461C4.71548 10.5288 5.18339 11.1456 5.71875 11.8594C5.78515 11.9479 5.88935 12 6.00002 12C6.1107 12 6.21488 11.9479 6.28127 11.8593C6.81349 11.1494 7.27936 10.5349 7.69041 9.99281C10.0742 6.84865 10.5703 6.19434 10.5703 4.57031C10.5703 2.05024 8.52007 0 6 0ZM7.13013 9.56801C6.79254 10.0133 6.41803 10.5072 5.99993 11.0631C5.57897 10.5037 5.20233 10.0072 4.86286 9.55964C2.54962 6.51014 2.13281 5.96065 2.13281 4.57031C2.13281 2.43795 3.86763 0.703125 6 0.703125C8.13237 0.703125 9.86719 2.43795 9.86719 4.57031C9.86719 5.95793 9.4493 6.50911 7.13013 9.56801Z" fill="#1660FC"/>
<path d="M6 2.10938C4.64304 2.10938 3.53906 3.21335 3.53906 4.57031C3.53906 5.92727 4.64304 7.03125 6 7.03125C7.35696 7.03125 8.46094 5.92727 8.46094 4.57031C8.46094 3.21335 7.35696 2.10938 6 2.10938ZM6 6.32812C5.03074 6.32812 4.24219 5.53957 4.24219 4.57031C4.24219 3.60105 5.03074 2.8125 6 2.8125C6.96926 2.8125 7.75781 3.60105 7.75781 4.57031C7.75781 5.53957 6.96926 6.32812 6 6.32812Z" fill="#1660FC"/>
</svg>
