<svg width="13" height="13" viewBox="0 0 13 13" fill="none" xmlns="http://www.w3.org/2000/svg">
<g clip-path="url(#clip0_1_91)">
<path d="M5.0577 2.9609L5.87108 2.14756V8.59661C5.87108 8.944 6.15271 9.22564 6.50011 9.22564C6.8475 9.22564 7.12913 8.944 7.12913 8.59661V2.14761L7.94242 2.9609C8.06525 3.08373 8.2262 3.14516 8.38719 3.14516C8.54818 3.14516 8.70917 3.08377 8.83195 2.9609C9.07761 2.71524 9.07761 2.31698 8.83195 2.07133L6.945 0.184324C6.93023 0.169605 6.91476 0.155683 6.8987 0.142515C6.89174 0.136812 6.8844 0.131863 6.87731 0.126538C6.868 0.119534 6.8589 0.112405 6.84922 0.105906C6.84054 0.100077 6.83152 0.0950443 6.82259 0.0897185C6.81391 0.0844766 6.80539 0.079025 6.79642 0.0742444C6.78732 0.0693799 6.77801 0.0652703 6.7687 0.060909C6.75935 0.0564639 6.75021 0.051851 6.7406 0.0478672C6.73163 0.0441349 6.72249 0.0411575 6.71339 0.0378866C6.70316 0.0341963 6.69305 0.0302544 6.68252 0.0271092C6.67347 0.0243835 6.66428 0.0223706 6.65518 0.0200641C6.64445 0.0173383 6.63379 0.014319 6.62285 0.0121803C6.61237 0.0101255 6.60176 0.00890937 6.59119 0.00735776C6.58146 0.0059739 6.5719 0.00412875 6.56204 0.00316424C6.54267 0.00127716 6.52325 0.000354582 6.5038 0.000228776C6.50254 0.000228776 6.50132 6.10352e-05 6.50006 6.10352e-05C6.49885 6.10352e-05 6.49759 0.000228776 6.49637 0.000228776C6.47692 0.000312646 6.45746 0.00127716 6.43804 0.00316424C6.4284 0.00412875 6.41904 0.00593196 6.40953 0.00727389C6.39871 0.00882549 6.38789 0.0100836 6.37719 0.0122222C6.36654 0.014319 6.35623 0.0172545 6.34578 0.0198964C6.33631 0.0222867 6.32683 0.0243415 6.31744 0.0271512C6.30733 0.0302125 6.29747 0.0340286 6.28758 0.0375931C6.27814 0.0409898 6.26862 0.044093 6.25931 0.0479511C6.25009 0.0517672 6.24128 0.0562542 6.23231 0.0604897C6.22266 0.0650187 6.21293 0.069338 6.20346 0.0743702C6.1949 0.0789412 6.18685 0.0841411 6.1785 0.0891314C6.16915 0.0946669 6.15976 0.0999507 6.15066 0.106031C6.14156 0.112112 6.13305 0.118905 6.12428 0.125405C6.11657 0.13115 6.10872 0.136476 6.10126 0.142641C6.08595 0.155179 6.07132 0.168473 6.05727 0.182353C6.0566 0.183024 6.05589 0.18357 6.05517 0.184241L4.16801 2.07133C3.92235 2.31698 3.92235 2.71524 4.16801 2.9609C4.41379 3.20655 4.81209 3.20647 5.0577 2.9609Z" fill="#1A1445"/>
<path d="M10.6935 4.1936H9.01612C8.66873 4.1936 8.38709 4.47524 8.38709 4.82263C8.38709 5.17002 8.66873 5.45166 9.01612 5.45166H10.0645V11.7419H2.93552V5.45166H3.9839C4.33129 5.45166 4.61292 5.17002 4.61292 4.82263C4.61292 4.47524 4.33129 4.1936 3.9839 4.1936H2.30649C1.9591 4.1936 1.67746 4.47524 1.67746 4.82263V12.371C1.67746 12.7184 1.9591 13 2.30649 13H10.6935C11.0409 13 11.3226 12.7184 11.3226 12.371V4.82263C11.3226 4.47524 11.0409 4.1936 10.6935 4.1936Z" fill="#1A1445"/>
</g>
<defs>
<clipPath id="clip0_1_91">
<rect width="13" height="13" fill="white"/>
</clipPath>
</defs>
</svg>
