<svg width="12" height="12" viewBox="0 0 12 12" fill="none" xmlns="http://www.w3.org/2000/svg">
<path d="M11.992 0.401108C11.9915 0.399108 11.9908 0.397108 11.9903 0.395107C11.9818 0.355352 11.9673 0.316846 11.949 0.279591C11.9443 0.27009 11.9395 0.260839 11.9343 0.251337C11.9128 0.213582 11.8878 0.177327 11.8555 0.145072C11.8233 0.112818 11.7867 0.0878142 11.749 0.0663112C11.74 0.0610604 11.731 0.0565598 11.7215 0.0518091C11.6832 0.0330565 11.644 0.0178044 11.603 0.00930316C11.6017 0.00905313 11.601 0.00880309 11.6 0.00855306C11.5572 5.18607e-05 11.5137 -0.00119831 11.4702 0.00155207C11.4607 0.00205214 11.4512 0.00305228 11.4417 0.00430246C11.3977 0.0095532 11.3539 0.0188045 11.3122 0.0358069L0.310883 4.53644C0.114605 4.6167 -0.009662 4.81198 0.000589438 5.02351C0.0108409 5.23529 0.153361 5.41756 0.35664 5.47832L5.09931 6.90127L6.52201 11.6439C6.58302 11.847 6.76529 11.9895 6.97682 11.9997C6.98507 12 6.99307 12.0002 7.00132 12.0002C7.20335 12.0002 7.38688 11.8782 7.46414 11.6894L11.9648 0.687899C11.9648 0.687648 11.9648 0.687648 11.9648 0.687398C11.9815 0.646393 11.9905 0.603637 11.9958 0.560381C11.997 0.549629 11.9983 0.539128 11.9988 0.528376C12.0013 0.48587 12.0003 0.443114 11.992 0.401108ZM1.99862 4.92649L9.39066 1.90232L5.35859 5.93464L1.99862 4.92649ZM7.07358 10.002L6.06569 6.64174L10.0975 2.60992L7.07358 10.002Z" fill="#5CCFFF"/>
</svg>
